<mxfile host="Electron" modified="2023-04-16T20:11:25.039Z" agent="Mozilla/5.0 (Windows NT 10.0; Win64; x64) AppleWebKit/537.36 (KHTML, like Gecko) draw.io/21.1.2 Chrome/106.0.5249.199 Electron/21.4.3 Safari/537.36" etag="e_9xpG9n8sqGrVoyB0Qt" version="21.1.2" type="device">
  <diagram name="Page-1" id="OiYN7bo5j43OLvS2R680">
    <mxGraphModel dx="1036" dy="614" grid="1" gridSize="10" guides="1" tooltips="1" connect="1" arrows="1" fold="1" page="1" pageScale="1" pageWidth="850" pageHeight="1100" math="0" shadow="0">
      <root>
        <mxCell id="0" />
        <mxCell id="1" parent="0" />
        <mxCell id="YMVjEpkjYxwiIr-BXK2i-1" value="&lt;font style=&quot;font-size: 18px;&quot;&gt;DevOps Project&amp;nbsp;by Mohamed Ali&lt;/font&gt;" style="text;html=1;strokeColor=none;fillColor=none;align=center;verticalAlign=middle;whiteSpace=wrap;rounded=0;" parent="1" vertex="1">
          <mxGeometry x="439" y="14" width="351" height="40" as="geometry" />
        </mxCell>
        <mxCell id="YMVjEpkjYxwiIr-BXK2i-10" value="" style="edgeStyle=orthogonalEdgeStyle;rounded=0;orthogonalLoop=1;jettySize=auto;html=1;" parent="1" source="YMVjEpkjYxwiIr-BXK2i-3" target="YMVjEpkjYxwiIr-BXK2i-5" edge="1">
          <mxGeometry relative="1" as="geometry" />
        </mxCell>
        <mxCell id="YMVjEpkjYxwiIr-BXK2i-3" value="&lt;font style=&quot;font-size: 14px;&quot;&gt;Developer&lt;/font&gt;" style="points=[[0.35,0,0],[0.98,0.51,0],[1,0.71,0],[0.67,1,0],[0,0.795,0],[0,0.65,0]];verticalLabelPosition=bottom;sketch=0;html=1;verticalAlign=top;aspect=fixed;align=center;pointerEvents=1;shape=mxgraph.cisco19.user;fillColor=#005073;strokeColor=none;" parent="1" vertex="1">
          <mxGeometry x="80" y="60" width="50" height="50" as="geometry" />
        </mxCell>
        <mxCell id="YMVjEpkjYxwiIr-BXK2i-9" value="" style="edgeStyle=orthogonalEdgeStyle;rounded=0;orthogonalLoop=1;jettySize=auto;html=1;" parent="1" source="YMVjEpkjYxwiIr-BXK2i-4" target="YMVjEpkjYxwiIr-BXK2i-6" edge="1">
          <mxGeometry relative="1" as="geometry" />
        </mxCell>
        <mxCell id="YMVjEpkjYxwiIr-BXK2i-4" value="&lt;font style=&quot;font-size: 14px;&quot;&gt;Operation/kubernetes admin&lt;/font&gt;" style="points=[[0.35,0,0],[0.98,0.51,0],[1,0.71,0],[0.67,1,0],[0,0.795,0],[0,0.65,0]];verticalLabelPosition=bottom;sketch=0;html=1;verticalAlign=top;aspect=fixed;align=center;pointerEvents=1;shape=mxgraph.cisco19.user;fillColor=#005073;strokeColor=none;" parent="1" vertex="1">
          <mxGeometry x="80" y="733" width="50" height="50" as="geometry" />
        </mxCell>
        <mxCell id="YMVjEpkjYxwiIr-BXK2i-16" value="" style="edgeStyle=orthogonalEdgeStyle;rounded=0;orthogonalLoop=1;jettySize=auto;html=1;" parent="1" edge="1">
          <mxGeometry relative="1" as="geometry">
            <mxPoint x="280" y="85" as="sourcePoint" />
            <mxPoint x="360" y="85" as="targetPoint" />
          </mxGeometry>
        </mxCell>
        <mxCell id="YMVjEpkjYxwiIr-BXK2i-5" value="CI Repositry" style="verticalLabelPosition=bottom;html=1;verticalAlign=top;align=center;strokeColor=none;fillColor=#00BEF2;shape=mxgraph.azure.github_code;pointerEvents=1;" parent="1" vertex="1">
          <mxGeometry x="230" y="60" width="50" height="50" as="geometry" />
        </mxCell>
        <mxCell id="YMVjEpkjYxwiIr-BXK2i-6" value="CD Repositry" style="verticalLabelPosition=bottom;html=1;verticalAlign=top;align=center;strokeColor=none;fillColor=#00BEF2;shape=mxgraph.azure.github_code;pointerEvents=1;" parent="1" vertex="1">
          <mxGeometry x="230" y="733" width="50" height="50" as="geometry" />
        </mxCell>
        <mxCell id="YMVjEpkjYxwiIr-BXK2i-11" value="Push" style="text;html=1;strokeColor=none;fillColor=none;align=center;verticalAlign=middle;whiteSpace=wrap;rounded=0;" parent="1" vertex="1">
          <mxGeometry x="150" y="729" width="60" height="30" as="geometry" />
        </mxCell>
        <mxCell id="YMVjEpkjYxwiIr-BXK2i-13" value="Push" style="text;html=1;strokeColor=none;fillColor=none;align=center;verticalAlign=middle;whiteSpace=wrap;rounded=0;" parent="1" vertex="1">
          <mxGeometry x="150" y="57" width="60" height="30" as="geometry" />
        </mxCell>
        <mxCell id="YMVjEpkjYxwiIr-BXK2i-14" value="EC2 instance (Jenkins_server)" style="points=[[0,0],[0.25,0],[0.5,0],[0.75,0],[1,0],[1,0.25],[1,0.5],[1,0.75],[1,1],[0.75,1],[0.5,1],[0.25,1],[0,1],[0,0.75],[0,0.5],[0,0.25]];outlineConnect=0;gradientColor=none;html=1;whiteSpace=wrap;fontSize=12;fontStyle=0;container=1;pointerEvents=0;collapsible=0;recursiveResize=0;shape=mxgraph.aws4.group;grIcon=mxgraph.aws4.group_ec2_instance_contents;strokeColor=#D86613;fillColor=none;verticalAlign=top;align=left;spacingLeft=30;fontColor=#D86613;dashed=0;" parent="1" vertex="1">
          <mxGeometry x="360" y="60" width="360" height="520" as="geometry" />
        </mxCell>
        <mxCell id="YMVjEpkjYxwiIr-BXK2i-18" value="" style="shape=image;verticalLabelPosition=bottom;labelBackgroundColor=default;verticalAlign=top;imageAspect=0;image=https://upload.wikimedia.org/wikipedia/commons/thumb/e/e9/Jenkins_logo.svg/742px-Jenkins_logo.svg.png;aspect=fixed;" parent="YMVjEpkjYxwiIr-BXK2i-14" vertex="1">
          <mxGeometry x="302" width="58" height="80" as="geometry" />
        </mxCell>
        <mxCell id="YMVjEpkjYxwiIr-BXK2i-60" value="" style="swimlane;startSize=0;" parent="YMVjEpkjYxwiIr-BXK2i-14" vertex="1">
          <mxGeometry x="40" y="28" width="240" height="280" as="geometry" />
        </mxCell>
        <mxCell id="YMVjEpkjYxwiIr-BXK2i-61" value="Continuous Integration Pipeline" style="text;html=1;strokeColor=none;fillColor=none;align=center;verticalAlign=middle;whiteSpace=wrap;rounded=0;" parent="YMVjEpkjYxwiIr-BXK2i-60" vertex="1">
          <mxGeometry y="1" width="240" height="30" as="geometry" />
        </mxCell>
        <mxCell id="YMVjEpkjYxwiIr-BXK2i-68" value="" style="edgeStyle=orthogonalEdgeStyle;rounded=0;orthogonalLoop=1;jettySize=auto;html=1;" parent="YMVjEpkjYxwiIr-BXK2i-60" source="YMVjEpkjYxwiIr-BXK2i-65" target="YMVjEpkjYxwiIr-BXK2i-67" edge="1">
          <mxGeometry relative="1" as="geometry" />
        </mxCell>
        <mxCell id="YMVjEpkjYxwiIr-BXK2i-65" value="&lt;font style=&quot;font-size: 14px;&quot;&gt;Maven Build&lt;/font&gt;" style="rounded=0;whiteSpace=wrap;html=1;align=left;" parent="YMVjEpkjYxwiIr-BXK2i-60" vertex="1">
          <mxGeometry x="10" y="36" width="220" height="30" as="geometry" />
        </mxCell>
        <mxCell id="YMVjEpkjYxwiIr-BXK2i-64" value="" style="shape=image;verticalLabelPosition=bottom;labelBackgroundColor=default;verticalAlign=top;aspect=fixed;imageAspect=0;image=https://upload.wikimedia.org/wikipedia/commons/thumb/5/52/Apache_Maven_logo.svg/2560px-Apache_Maven_logo.svg.png;" parent="YMVjEpkjYxwiIr-BXK2i-60" vertex="1">
          <mxGeometry x="143.33" y="42" width="86.67" height="22" as="geometry" />
        </mxCell>
        <mxCell id="YMVjEpkjYxwiIr-BXK2i-67" value="&lt;font style=&quot;font-size: 14px;&quot;&gt;SonarQube Code Analysis&lt;/font&gt;" style="rounded=0;whiteSpace=wrap;html=1;align=left;" parent="YMVjEpkjYxwiIr-BXK2i-60" vertex="1">
          <mxGeometry x="10" y="88" width="220" height="30" as="geometry" />
        </mxCell>
        <mxCell id="YMVjEpkjYxwiIr-BXK2i-76" value="&lt;font style=&quot;font-size: 14px;&quot;&gt;Check for Quality Gates Results&lt;/font&gt;" style="rounded=0;whiteSpace=wrap;html=1;align=left;" parent="YMVjEpkjYxwiIr-BXK2i-60" vertex="1">
          <mxGeometry x="10" y="142" width="220" height="30" as="geometry" />
        </mxCell>
        <mxCell id="YMVjEpkjYxwiIr-BXK2i-77" value="" style="endArrow=classic;html=1;rounded=0;exitX=0.5;exitY=1;exitDx=0;exitDy=0;entryX=0.5;entryY=0;entryDx=0;entryDy=0;" parent="YMVjEpkjYxwiIr-BXK2i-60" source="YMVjEpkjYxwiIr-BXK2i-67" target="YMVjEpkjYxwiIr-BXK2i-76" edge="1">
          <mxGeometry width="50" height="50" relative="1" as="geometry">
            <mxPoint x="230" y="270" as="sourcePoint" />
            <mxPoint x="280" y="220" as="targetPoint" />
          </mxGeometry>
        </mxCell>
        <mxCell id="YMVjEpkjYxwiIr-BXK2i-78" value="&lt;font style=&quot;font-size: 14px;&quot;&gt;Build Docker Image&lt;/font&gt;" style="rounded=0;whiteSpace=wrap;html=1;align=left;" parent="YMVjEpkjYxwiIr-BXK2i-60" vertex="1">
          <mxGeometry x="10" y="190" width="220" height="30" as="geometry" />
        </mxCell>
        <mxCell id="YMVjEpkjYxwiIr-BXK2i-80" value="&lt;font style=&quot;font-size: 14px;&quot;&gt;Push Docker Image&lt;/font&gt;" style="rounded=0;whiteSpace=wrap;html=1;align=left;" parent="YMVjEpkjYxwiIr-BXK2i-60" vertex="1">
          <mxGeometry x="10" y="240" width="220" height="30" as="geometry" />
        </mxCell>
        <mxCell id="YMVjEpkjYxwiIr-BXK2i-95" value="" style="endArrow=classic;html=1;rounded=0;exitX=0.5;exitY=1;exitDx=0;exitDy=0;entryX=0.5;entryY=0;entryDx=0;entryDy=0;" parent="YMVjEpkjYxwiIr-BXK2i-60" source="YMVjEpkjYxwiIr-BXK2i-76" target="YMVjEpkjYxwiIr-BXK2i-78" edge="1">
          <mxGeometry width="50" height="50" relative="1" as="geometry">
            <mxPoint x="230" y="312" as="sourcePoint" />
            <mxPoint x="280" y="262" as="targetPoint" />
          </mxGeometry>
        </mxCell>
        <mxCell id="YMVjEpkjYxwiIr-BXK2i-96" value="" style="endArrow=classic;html=1;rounded=0;exitX=0.5;exitY=1;exitDx=0;exitDy=0;entryX=0.5;entryY=0;entryDx=0;entryDy=0;" parent="YMVjEpkjYxwiIr-BXK2i-60" source="YMVjEpkjYxwiIr-BXK2i-78" target="YMVjEpkjYxwiIr-BXK2i-80" edge="1">
          <mxGeometry width="50" height="50" relative="1" as="geometry">
            <mxPoint x="230" y="312" as="sourcePoint" />
            <mxPoint x="280" y="262" as="targetPoint" />
          </mxGeometry>
        </mxCell>
        <mxCell id="u4mqK_uS4EINg5pb3RAC-1" value="" style="shape=image;verticalLabelPosition=bottom;labelBackgroundColor=default;verticalAlign=top;aspect=fixed;imageAspect=0;image=https://upload.wikimedia.org/wikipedia/commons/thumb/4/4e/Docker_%28container_engine%29_logo.svg/1280px-Docker_%28container_engine%29_logo.svg.png;" parent="YMVjEpkjYxwiIr-BXK2i-60" vertex="1">
          <mxGeometry x="140" y="194.27" width="90" height="21.46" as="geometry" />
        </mxCell>
        <mxCell id="YMVjEpkjYxwiIr-BXK2i-63" value="" style="endArrow=classic;html=1;rounded=0;entryX=0;entryY=0;entryDx=0;entryDy=0;" parent="YMVjEpkjYxwiIr-BXK2i-14" target="YMVjEpkjYxwiIr-BXK2i-61" edge="1">
          <mxGeometry width="50" height="50" relative="1" as="geometry">
            <mxPoint y="25" as="sourcePoint" />
            <mxPoint x="280" y="270" as="targetPoint" />
          </mxGeometry>
        </mxCell>
        <mxCell id="YMVjEpkjYxwiIr-BXK2i-85" value="" style="swimlane;startSize=0;" parent="YMVjEpkjYxwiIr-BXK2i-14" vertex="1">
          <mxGeometry x="40" y="357" width="240" height="150" as="geometry" />
        </mxCell>
        <mxCell id="YMVjEpkjYxwiIr-BXK2i-86" value="Continuous Deployment&amp;nbsp; Pipeline" style="text;html=1;strokeColor=none;fillColor=none;align=center;verticalAlign=middle;whiteSpace=wrap;rounded=0;" parent="YMVjEpkjYxwiIr-BXK2i-85" vertex="1">
          <mxGeometry width="240" height="30" as="geometry" />
        </mxCell>
        <mxCell id="YMVjEpkjYxwiIr-BXK2i-87" value="&lt;font style=&quot;font-size: 14px;&quot;&gt;Build Deployment file using&lt;br&gt;&amp;nbsp;Docker Image&lt;/font&gt;" style="rounded=0;whiteSpace=wrap;html=1;align=center;" parent="YMVjEpkjYxwiIr-BXK2i-85" vertex="1">
          <mxGeometry x="10" y="40" width="220" height="40" as="geometry" />
        </mxCell>
        <mxCell id="YMVjEpkjYxwiIr-BXK2i-93" value="&lt;span style=&quot;font-size: 14px;&quot;&gt;Install&amp;nbsp;&lt;/span&gt;ArgoCD, Prometheus and Gerafana if not installed" style="rounded=0;whiteSpace=wrap;html=1;align=center;" parent="YMVjEpkjYxwiIr-BXK2i-85" vertex="1">
          <mxGeometry x="10" y="100" width="220" height="40" as="geometry" />
        </mxCell>
        <mxCell id="YMVjEpkjYxwiIr-BXK2i-94" value="" style="endArrow=classic;html=1;rounded=0;exitX=0.5;exitY=1;exitDx=0;exitDy=0;entryX=0.5;entryY=0;entryDx=0;entryDy=0;" parent="YMVjEpkjYxwiIr-BXK2i-85" source="YMVjEpkjYxwiIr-BXK2i-87" target="YMVjEpkjYxwiIr-BXK2i-93" edge="1">
          <mxGeometry width="50" height="50" relative="1" as="geometry">
            <mxPoint x="230" y="-17" as="sourcePoint" />
            <mxPoint x="280" y="-67" as="targetPoint" />
          </mxGeometry>
        </mxCell>
        <mxCell id="YMVjEpkjYxwiIr-BXK2i-102" value="" style="endArrow=classic;html=1;rounded=0;exitX=0.5;exitY=1;exitDx=0;exitDy=0;entryX=0.5;entryY=0;entryDx=0;entryDy=0;" parent="YMVjEpkjYxwiIr-BXK2i-14" source="YMVjEpkjYxwiIr-BXK2i-60" target="YMVjEpkjYxwiIr-BXK2i-86" edge="1">
          <mxGeometry width="50" height="50" relative="1" as="geometry">
            <mxPoint x="270" y="330" as="sourcePoint" />
            <mxPoint x="320" y="280" as="targetPoint" />
          </mxGeometry>
        </mxCell>
        <mxCell id="YMVjEpkjYxwiIr-BXK2i-103" value="Success&lt;br&gt;Trigger" style="text;html=1;strokeColor=none;fillColor=none;align=center;verticalAlign=middle;whiteSpace=wrap;rounded=0;" parent="YMVjEpkjYxwiIr-BXK2i-14" vertex="1">
          <mxGeometry x="159" y="315" width="60" height="30" as="geometry" />
        </mxCell>
        <mxCell id="YMVjEpkjYxwiIr-BXK2i-17" value="" style="swimlane;startSize=0;" parent="1" vertex="1">
          <mxGeometry x="360" y="609" width="720" height="470" as="geometry" />
        </mxCell>
        <mxCell id="YMVjEpkjYxwiIr-BXK2i-24" value="" style="sketch=0;points=[[0,0,0],[0.25,0,0],[0.5,0,0],[0.75,0,0],[1,0,0],[0,1,0],[0.25,1,0],[0.5,1,0],[0.75,1,0],[1,1,0],[0,0.25,0],[0,0.5,0],[0,0.75,0],[1,0.25,0],[1,0.5,0],[1,0.75,0]];outlineConnect=0;fontColor=#232F3E;gradientColor=#F78E04;gradientDirection=north;fillColor=#D05C17;strokeColor=#ffffff;dashed=0;verticalLabelPosition=bottom;verticalAlign=top;align=center;html=1;fontSize=12;fontStyle=0;aspect=fixed;shape=mxgraph.aws4.resourceIcon;resIcon=mxgraph.aws4.eks;" parent="YMVjEpkjYxwiIr-BXK2i-17" vertex="1">
          <mxGeometry x="642" width="78" height="78" as="geometry" />
        </mxCell>
        <mxCell id="YMVjEpkjYxwiIr-BXK2i-25" value="" style="shape=image;verticalLabelPosition=bottom;labelBackgroundColor=default;verticalAlign=top;aspect=fixed;imageAspect=0;image=https://cncf-branding.netlify.app/img/projects/argo/stacked/color/argo-stacked-color.png;" parent="YMVjEpkjYxwiIr-BXK2i-17" vertex="1">
          <mxGeometry y="83" width="90" height="131.83" as="geometry" />
        </mxCell>
        <mxCell id="YMVjEpkjYxwiIr-BXK2i-42" value="" style="swimlane;startSize=0;" parent="YMVjEpkjYxwiIr-BXK2i-17" vertex="1">
          <mxGeometry x="120" y="111" width="560" height="279" as="geometry" />
        </mxCell>
        <mxCell id="YMVjEpkjYxwiIr-BXK2i-43" value="" style="swimlane;startSize=0;" parent="YMVjEpkjYxwiIr-BXK2i-42" vertex="1">
          <mxGeometry x="80" y="39" width="140" height="201" as="geometry" />
        </mxCell>
        <mxCell id="YMVjEpkjYxwiIr-BXK2i-47" value="Java_app_deployment" style="text;html=1;strokeColor=none;fillColor=none;align=center;verticalAlign=middle;whiteSpace=wrap;rounded=0;" parent="YMVjEpkjYxwiIr-BXK2i-43" vertex="1">
          <mxGeometry x="11" width="129" height="30" as="geometry" />
        </mxCell>
        <mxCell id="YMVjEpkjYxwiIr-BXK2i-40" value="" style="shape=image;verticalLabelPosition=bottom;labelBackgroundColor=default;verticalAlign=top;aspect=fixed;imageAspect=0;image=https://raw.githubusercontent.com/kubernetes/community/52142f3967be91136aa7ebeafc5004a86492e41b/icons/svg/resources/labeled/pod.svg;" parent="YMVjEpkjYxwiIr-BXK2i-43" vertex="1">
          <mxGeometry x="36" y="120" width="68" height="66" as="geometry" />
        </mxCell>
        <mxCell id="YMVjEpkjYxwiIr-BXK2i-39" value="" style="shape=image;verticalLabelPosition=bottom;labelBackgroundColor=default;verticalAlign=top;aspect=fixed;imageAspect=0;image=https://raw.githubusercontent.com/kubernetes/community/52142f3967be91136aa7ebeafc5004a86492e41b/icons/svg/resources/labeled/pod.svg;" parent="YMVjEpkjYxwiIr-BXK2i-43" vertex="1">
          <mxGeometry x="36" y="40" width="68" height="66" as="geometry" />
        </mxCell>
        <mxCell id="YMVjEpkjYxwiIr-BXK2i-48" value="" style="edgeStyle=orthogonalEdgeStyle;rounded=0;orthogonalLoop=1;jettySize=auto;html=1;" parent="YMVjEpkjYxwiIr-BXK2i-42" source="YMVjEpkjYxwiIr-BXK2i-38" target="YMVjEpkjYxwiIr-BXK2i-39" edge="1">
          <mxGeometry relative="1" as="geometry" />
        </mxCell>
        <mxCell id="YMVjEpkjYxwiIr-BXK2i-38" value="Java_app_service" style="shape=image;verticalLabelPosition=bottom;labelBackgroundColor=default;verticalAlign=top;aspect=fixed;imageAspect=0;image=https://raw.githubusercontent.com/kubernetes/community/52142f3967be91136aa7ebeafc5004a86492e41b/icons/svg/resources/labeled/svc.svg;" parent="YMVjEpkjYxwiIr-BXK2i-42" vertex="1">
          <mxGeometry x="290" y="118" width="68" height="66" as="geometry" />
        </mxCell>
        <mxCell id="YMVjEpkjYxwiIr-BXK2i-49" value="" style="edgeStyle=orthogonalEdgeStyle;rounded=0;orthogonalLoop=1;jettySize=auto;html=1;startArrow=classic;startFill=1;endArrow=none;endFill=0;" parent="YMVjEpkjYxwiIr-BXK2i-42" source="YMVjEpkjYxwiIr-BXK2i-40" target="YMVjEpkjYxwiIr-BXK2i-38" edge="1">
          <mxGeometry relative="1" as="geometry" />
        </mxCell>
        <mxCell id="YMVjEpkjYxwiIr-BXK2i-53" value="" style="edgeStyle=orthogonalEdgeStyle;rounded=0;orthogonalLoop=1;jettySize=auto;html=1;" parent="YMVjEpkjYxwiIr-BXK2i-42" source="YMVjEpkjYxwiIr-BXK2i-52" target="YMVjEpkjYxwiIr-BXK2i-38" edge="1">
          <mxGeometry relative="1" as="geometry" />
        </mxCell>
        <mxCell id="YMVjEpkjYxwiIr-BXK2i-52" value="Nginx Ingress&#xa;Controller" style="shape=image;verticalLabelPosition=bottom;labelBackgroundColor=default;verticalAlign=top;aspect=fixed;imageAspect=0;image=https://raw.githubusercontent.com/kubernetes/community/52142f3967be91136aa7ebeafc5004a86492e41b/icons/svg/resources/labeled/ing.svg;" parent="YMVjEpkjYxwiIr-BXK2i-42" vertex="1">
          <mxGeometry x="440" y="118" width="68" height="66" as="geometry" />
        </mxCell>
        <mxCell id="YMVjEpkjYxwiIr-BXK2i-41" value="App" style="shape=image;verticalLabelPosition=bottom;labelBackgroundColor=default;verticalAlign=top;aspect=fixed;imageAspect=0;image=https://raw.githubusercontent.com/kubernetes/community/52142f3967be91136aa7ebeafc5004a86492e41b/icons/svg/resources/labeled/ns.svg;" parent="YMVjEpkjYxwiIr-BXK2i-17" vertex="1">
          <mxGeometry x="123" y="85" width="68" height="66" as="geometry" />
        </mxCell>
        <mxCell id="YMVjEpkjYxwiIr-BXK2i-105" value="" style="sketch=0;html=1;dashed=0;whitespace=wrap;fillColor=#2875E2;strokeColor=#ffffff;points=[[0.005,0.63,0],[0.1,0.2,0],[0.9,0.2,0],[0.5,0,0],[0.995,0.63,0],[0.72,0.99,0],[0.5,1,0],[0.28,0.99,0]];verticalLabelPosition=bottom;align=center;verticalAlign=top;shape=mxgraph.kubernetes.icon;prIcon=api" parent="YMVjEpkjYxwiIr-BXK2i-17" vertex="1">
          <mxGeometry x="115" width="90" height="60" as="geometry" />
        </mxCell>
        <mxCell id="YMVjEpkjYxwiIr-BXK2i-106" value="" style="edgeStyle=orthogonalEdgeStyle;rounded=0;orthogonalLoop=1;jettySize=auto;html=1;entryX=0.005;entryY=0.63;entryDx=0;entryDy=0;entryPerimeter=0;exitX=0.5;exitY=0;exitDx=0;exitDy=0;endSize=6;" parent="YMVjEpkjYxwiIr-BXK2i-17" source="YMVjEpkjYxwiIr-BXK2i-25" target="YMVjEpkjYxwiIr-BXK2i-105" edge="1">
          <mxGeometry relative="1" as="geometry" />
        </mxCell>
        <mxCell id="YMVjEpkjYxwiIr-BXK2i-110" value="" style="swimlane;startSize=0;" parent="YMVjEpkjYxwiIr-BXK2i-17" vertex="1">
          <mxGeometry x="10" y="228.25" width="80" height="201.75" as="geometry" />
        </mxCell>
        <mxCell id="YMVjEpkjYxwiIr-BXK2i-107" value="" style="shape=image;verticalLabelPosition=bottom;labelBackgroundColor=default;verticalAlign=top;aspect=fixed;imageAspect=0;image=https://upload.wikimedia.org/wikipedia/commons/thumb/3/38/Prometheus_software_logo.svg/2066px-Prometheus_software_logo.svg.png;" parent="YMVjEpkjYxwiIr-BXK2i-110" vertex="1">
          <mxGeometry x="6.050000000000011" y="27.75" width="67.9" height="67.25" as="geometry" />
        </mxCell>
        <mxCell id="YMVjEpkjYxwiIr-BXK2i-108" value="" style="shape=image;verticalLabelPosition=bottom;labelBackgroundColor=default;verticalAlign=top;aspect=fixed;imageAspect=0;image=https://cdn.worldvectorlogo.com/logos/grafana.svg;" parent="YMVjEpkjYxwiIr-BXK2i-110" vertex="1">
          <mxGeometry x="6.980000000000018" y="122.75" width="66.03" height="73.37" as="geometry" />
        </mxCell>
        <mxCell id="YMVjEpkjYxwiIr-BXK2i-113" value="&lt;font style=&quot;font-size: 18px;&quot;&gt;EKS Cluster&lt;/font&gt;" style="text;html=1;strokeColor=none;fillColor=none;align=center;verticalAlign=middle;whiteSpace=wrap;rounded=0;" parent="YMVjEpkjYxwiIr-BXK2i-17" vertex="1">
          <mxGeometry x="360" width="110" height="30" as="geometry" />
        </mxCell>
        <mxCell id="YMVjEpkjYxwiIr-BXK2i-19" value="EC2 instance contents (SonarQube_server)" style="points=[[0,0],[0.25,0],[0.5,0],[0.75,0],[1,0],[1,0.25],[1,0.5],[1,0.75],[1,1],[0.75,1],[0.5,1],[0.25,1],[0,1],[0,0.75],[0,0.5],[0,0.25]];outlineConnect=0;gradientColor=none;html=1;whiteSpace=wrap;fontSize=12;fontStyle=0;container=1;pointerEvents=0;collapsible=0;recursiveResize=0;shape=mxgraph.aws4.group;grIcon=mxgraph.aws4.group_ec2_instance_contents;strokeColor=#D86613;fillColor=none;verticalAlign=top;align=left;spacingLeft=30;fontColor=#D86613;dashed=0;" parent="1" vertex="1">
          <mxGeometry x="880" y="60" width="240" height="160" as="geometry" />
        </mxCell>
        <mxCell id="YMVjEpkjYxwiIr-BXK2i-21" value="" style="shape=image;verticalLabelPosition=bottom;labelBackgroundColor=default;verticalAlign=top;aspect=fixed;imageAspect=0;image=https://www.svgrepo.com/show/354365/sonarqube.svg;clipPath=inset(33.33% 0.67% 33.33% 0%);" parent="YMVjEpkjYxwiIr-BXK2i-19" vertex="1">
          <mxGeometry x="160" width="79.4" height="26.64" as="geometry" />
        </mxCell>
        <mxCell id="YMVjEpkjYxwiIr-BXK2i-69" value="&lt;font style=&quot;font-size: 15px;&quot;&gt;Quality Gates&lt;/font&gt;" style="rounded=0;whiteSpace=wrap;html=1;" parent="YMVjEpkjYxwiIr-BXK2i-19" vertex="1">
          <mxGeometry x="40" y="60" width="160" height="70" as="geometry" />
        </mxCell>
        <mxCell id="YMVjEpkjYxwiIr-BXK2i-20" value="EC2 instance contents&lt;br&gt;(Nexus_server)" style="points=[[0,0],[0.25,0],[0.5,0],[0.75,0],[1,0],[1,0.25],[1,0.5],[1,0.75],[1,1],[0.75,1],[0.5,1],[0.25,1],[0,1],[0,0.75],[0,0.5],[0,0.25]];outlineConnect=0;gradientColor=none;html=1;whiteSpace=wrap;fontSize=12;fontStyle=0;container=1;pointerEvents=0;collapsible=0;recursiveResize=0;shape=mxgraph.aws4.group;grIcon=mxgraph.aws4.group_ec2_instance_contents;strokeColor=#D86613;fillColor=none;verticalAlign=top;align=left;spacingLeft=30;fontColor=#D86613;dashed=0;" parent="1" vertex="1">
          <mxGeometry x="880" y="230" width="240" height="217" as="geometry" />
        </mxCell>
        <mxCell id="YMVjEpkjYxwiIr-BXK2i-22" value="" style="shape=image;verticalLabelPosition=bottom;labelBackgroundColor=default;verticalAlign=top;aspect=fixed;imageAspect=0;image=https://assets-global.website-files.com/5f10ed4c0ebf7221fb5661a5/5f2af61146c55b6e172fa5b3_NexusRepo_Icon.png;" parent="YMVjEpkjYxwiIr-BXK2i-20" vertex="1">
          <mxGeometry x="180" width="60" height="60" as="geometry" />
        </mxCell>
        <mxCell id="YMVjEpkjYxwiIr-BXK2i-23" value="Maven Repository" style="rounded=0;whiteSpace=wrap;html=1;" parent="YMVjEpkjYxwiIr-BXK2i-20" vertex="1">
          <mxGeometry x="40" y="80" width="160" height="40" as="geometry" />
        </mxCell>
        <mxCell id="YMVjEpkjYxwiIr-BXK2i-58" value="Docker Repository" style="rounded=0;whiteSpace=wrap;html=1;" parent="YMVjEpkjYxwiIr-BXK2i-20" vertex="1">
          <mxGeometry x="40" y="147" width="160" height="40" as="geometry" />
        </mxCell>
        <mxCell id="YMVjEpkjYxwiIr-BXK2i-26" value="" style="edgeStyle=orthogonalEdgeStyle;rounded=0;orthogonalLoop=1;jettySize=auto;html=1;" parent="1" source="YMVjEpkjYxwiIr-BXK2i-25" target="YMVjEpkjYxwiIr-BXK2i-6" edge="1">
          <mxGeometry relative="1" as="geometry" />
        </mxCell>
        <mxCell id="YMVjEpkjYxwiIr-BXK2i-27" value="Check Changes" style="text;html=1;strokeColor=none;fillColor=none;align=center;verticalAlign=middle;whiteSpace=wrap;rounded=0;" parent="1" vertex="1">
          <mxGeometry x="295" y="729" width="60" height="30" as="geometry" />
        </mxCell>
        <mxCell id="YMVjEpkjYxwiIr-BXK2i-55" value="" style="edgeStyle=orthogonalEdgeStyle;rounded=0;orthogonalLoop=1;jettySize=auto;html=1;entryX=1;entryY=0.5;entryDx=0;entryDy=0;" parent="1" source="YMVjEpkjYxwiIr-BXK2i-56" target="YMVjEpkjYxwiIr-BXK2i-52" edge="1">
          <mxGeometry relative="1" as="geometry">
            <mxPoint x="230" y="889.0000000000002" as="targetPoint" />
          </mxGeometry>
        </mxCell>
        <mxCell id="YMVjEpkjYxwiIr-BXK2i-51" value="End Users&lt;br&gt;" style="sketch=0;pointerEvents=1;shadow=0;dashed=0;html=1;strokeColor=none;labelPosition=center;verticalLabelPosition=bottom;verticalAlign=top;outlineConnect=0;align=center;shape=mxgraph.office.users.users;fillColor=#2072B8;" parent="1" vertex="1">
          <mxGeometry x="1275" y="841" width="70" height="60" as="geometry" />
        </mxCell>
        <mxCell id="YMVjEpkjYxwiIr-BXK2i-57" value="" style="edgeStyle=orthogonalEdgeStyle;rounded=0;orthogonalLoop=1;jettySize=auto;html=1;entryX=1;entryY=0.5;entryDx=0;entryDy=0;entryPerimeter=0;" parent="1" source="YMVjEpkjYxwiIr-BXK2i-51" target="YMVjEpkjYxwiIr-BXK2i-56" edge="1">
          <mxGeometry relative="1" as="geometry">
            <mxPoint x="148" y="882" as="sourcePoint" />
            <mxPoint x="560" y="882" as="targetPoint" />
          </mxGeometry>
        </mxCell>
        <mxCell id="YMVjEpkjYxwiIr-BXK2i-56" value="Application&lt;br&gt;Load Balancer" style="sketch=0;points=[[0,0,0],[0.25,0,0],[0.5,0,0],[0.75,0,0],[1,0,0],[0,1,0],[0.25,1,0],[0.5,1,0],[0.75,1,0],[1,1,0],[0,0.25,0],[0,0.5,0],[0,0.75,0],[1,0.25,0],[1,0.5,0],[1,0.75,0]];outlineConnect=0;fontColor=#232F3E;gradientColor=#F78E04;gradientDirection=north;fillColor=#D05C17;strokeColor=#ffffff;dashed=0;verticalLabelPosition=bottom;verticalAlign=top;align=center;html=1;fontSize=12;fontStyle=0;aspect=fixed;shape=mxgraph.aws4.resourceIcon;resIcon=mxgraph.aws4.elastic_load_balancing;" parent="1" vertex="1">
          <mxGeometry x="1110" y="837" width="68" height="68" as="geometry" />
        </mxCell>
        <mxCell id="YMVjEpkjYxwiIr-BXK2i-59" value="Webhook Trigger" style="text;html=1;strokeColor=none;fillColor=none;align=center;verticalAlign=middle;whiteSpace=wrap;rounded=0;" parent="1" vertex="1">
          <mxGeometry x="288" y="57" width="60" height="30" as="geometry" />
        </mxCell>
        <mxCell id="YMVjEpkjYxwiIr-BXK2i-72" value="" style="endArrow=classic;html=1;rounded=0;exitX=1;exitY=0.25;exitDx=0;exitDy=0;entryX=0;entryY=0.25;entryDx=0;entryDy=0;" parent="1" source="YMVjEpkjYxwiIr-BXK2i-67" target="YMVjEpkjYxwiIr-BXK2i-69" edge="1">
          <mxGeometry width="50" height="50" relative="1" as="geometry">
            <mxPoint x="630" y="370" as="sourcePoint" />
            <mxPoint x="680" y="320" as="targetPoint" />
          </mxGeometry>
        </mxCell>
        <mxCell id="YMVjEpkjYxwiIr-BXK2i-73" value="" style="endArrow=classic;html=1;rounded=0;exitX=0;exitY=0.75;exitDx=0;exitDy=0;entryX=1;entryY=0.5;entryDx=0;entryDy=0;" parent="1" source="YMVjEpkjYxwiIr-BXK2i-69" target="YMVjEpkjYxwiIr-BXK2i-76" edge="1">
          <mxGeometry width="50" height="50" relative="1" as="geometry">
            <mxPoint x="630" y="370" as="sourcePoint" />
            <mxPoint x="680" y="320" as="targetPoint" />
          </mxGeometry>
        </mxCell>
        <mxCell id="YMVjEpkjYxwiIr-BXK2i-81" value="" style="endArrow=classic;html=1;rounded=0;exitX=0;exitY=0.25;exitDx=0;exitDy=0;entryX=1;entryY=0.5;entryDx=0;entryDy=0;" parent="1" source="YMVjEpkjYxwiIr-BXK2i-23" target="YMVjEpkjYxwiIr-BXK2i-64" edge="1">
          <mxGeometry width="50" height="50" relative="1" as="geometry">
            <mxPoint x="630" y="370" as="sourcePoint" />
            <mxPoint x="630" y="150" as="targetPoint" />
          </mxGeometry>
        </mxCell>
        <mxCell id="YMVjEpkjYxwiIr-BXK2i-82" value="" style="endArrow=classic;html=1;rounded=0;exitX=1;exitY=0.5;exitDx=0;exitDy=0;entryX=0;entryY=0.25;entryDx=0;entryDy=0;" parent="1" source="YMVjEpkjYxwiIr-BXK2i-80" target="YMVjEpkjYxwiIr-BXK2i-58" edge="1">
          <mxGeometry width="50" height="50" relative="1" as="geometry">
            <mxPoint x="630" y="370" as="sourcePoint" />
            <mxPoint x="680" y="320" as="targetPoint" />
          </mxGeometry>
        </mxCell>
        <mxCell id="YMVjEpkjYxwiIr-BXK2i-88" value="" style="endArrow=classic;html=1;rounded=0;exitX=0;exitY=0.75;exitDx=0;exitDy=0;entryX=1;entryY=0.5;entryDx=0;entryDy=0;" parent="1" source="YMVjEpkjYxwiIr-BXK2i-58" target="YMVjEpkjYxwiIr-BXK2i-87" edge="1">
          <mxGeometry width="50" height="50" relative="1" as="geometry">
            <mxPoint x="630" y="390" as="sourcePoint" />
            <mxPoint x="680" y="340" as="targetPoint" />
          </mxGeometry>
        </mxCell>
        <mxCell id="YMVjEpkjYxwiIr-BXK2i-89" value="Push" style="text;html=1;strokeColor=none;fillColor=none;align=center;verticalAlign=middle;whiteSpace=wrap;rounded=0;" parent="1" vertex="1">
          <mxGeometry x="760" y="345" width="60" height="30" as="geometry" />
        </mxCell>
        <mxCell id="YMVjEpkjYxwiIr-BXK2i-92" value="Pull" style="text;html=1;strokeColor=none;fillColor=none;align=center;verticalAlign=middle;whiteSpace=wrap;rounded=0;" parent="1" vertex="1">
          <mxGeometry x="760" y="436" width="60" height="30" as="geometry" />
        </mxCell>
        <mxCell id="YMVjEpkjYxwiIr-BXK2i-97" value="" style="shape=image;verticalLabelPosition=bottom;labelBackgroundColor=default;verticalAlign=top;aspect=fixed;imageAspect=0;image=https://upload.wikimedia.org/wikipedia/commons/thumb/b/b9/Slack_Technologies_Logo.svg/1280px-Slack_Technologies_Logo.svg.png;fontSize=14;" parent="1" vertex="1">
          <mxGeometry x="80" y="200" width="220" height="55.85" as="geometry" />
        </mxCell>
        <mxCell id="YMVjEpkjYxwiIr-BXK2i-98" value="&lt;font style=&quot;font-size: 16px;&quot;&gt;Success&lt;/font&gt;" style="text;html=1;align=center;verticalAlign=middle;whiteSpace=wrap;rounded=0;fillColor=#d5e8d4;strokeColor=#82b366;" parent="1" vertex="1">
          <mxGeometry x="68" y="260" width="82" height="30" as="geometry" />
        </mxCell>
        <mxCell id="YMVjEpkjYxwiIr-BXK2i-99" value="&lt;font style=&quot;font-size: 16px;&quot;&gt;Fail&lt;/font&gt;" style="text;html=1;align=center;verticalAlign=middle;whiteSpace=wrap;rounded=0;fillColor=#f8cecc;strokeColor=#b85450;" parent="1" vertex="1">
          <mxGeometry x="160" y="260" width="82" height="30" as="geometry" />
        </mxCell>
        <mxCell id="YMVjEpkjYxwiIr-BXK2i-100" value="&lt;font style=&quot;font-size: 16px;&quot;&gt;Aborted&lt;/font&gt;" style="text;html=1;align=center;verticalAlign=middle;whiteSpace=wrap;rounded=0;fillColor=#f5f5f5;strokeColor=#666666;fontColor=#333333;" parent="1" vertex="1">
          <mxGeometry x="250" y="260" width="82" height="30" as="geometry" />
        </mxCell>
        <mxCell id="YMVjEpkjYxwiIr-BXK2i-101" value="" style="endArrow=none;html=1;rounded=0;exitX=1;exitY=0.5;exitDx=0;exitDy=0;entryX=0;entryY=0.5;entryDx=0;entryDy=0;endFill=0;startArrow=classic;startFill=1;" parent="1" source="YMVjEpkjYxwiIr-BXK2i-97" target="YMVjEpkjYxwiIr-BXK2i-60" edge="1">
          <mxGeometry width="50" height="50" relative="1" as="geometry">
            <mxPoint x="630" y="390" as="sourcePoint" />
            <mxPoint x="680" y="340" as="targetPoint" />
          </mxGeometry>
        </mxCell>
        <mxCell id="YMVjEpkjYxwiIr-BXK2i-104" value="" style="endArrow=classic;html=1;rounded=0;exitX=0.5;exitY=1;exitDx=0;exitDy=0;entryX=0.5;entryY=0;entryDx=0;entryDy=0;entryPerimeter=0;" parent="1" source="YMVjEpkjYxwiIr-BXK2i-85" target="YMVjEpkjYxwiIr-BXK2i-105" edge="1">
          <mxGeometry width="50" height="50" relative="1" as="geometry">
            <mxPoint x="630" y="630" as="sourcePoint" />
            <mxPoint x="680" y="580" as="targetPoint" />
          </mxGeometry>
        </mxCell>
        <mxCell id="YMVjEpkjYxwiIr-BXK2i-109" value="" style="endArrow=classic;html=1;rounded=0;exitX=0;exitY=0.5;exitDx=0;exitDy=0;entryX=0.5;entryY=0;entryDx=0;entryDy=0;entryPerimeter=0;" parent="1" source="YMVjEpkjYxwiIr-BXK2i-87" target="YMVjEpkjYxwiIr-BXK2i-6" edge="1">
          <mxGeometry width="50" height="50" relative="1" as="geometry">
            <mxPoint x="550" y="640" as="sourcePoint" />
            <mxPoint x="600" y="590" as="targetPoint" />
            <Array as="points">
              <mxPoint x="255" y="477" />
            </Array>
          </mxGeometry>
        </mxCell>
        <mxCell id="YMVjEpkjYxwiIr-BXK2i-111" value="" style="endArrow=classic;html=1;rounded=0;entryX=0;entryY=0.5;entryDx=0;entryDy=0;" parent="1" target="YMVjEpkjYxwiIr-BXK2i-110" edge="1">
          <mxGeometry width="50" height="50" relative="1" as="geometry">
            <mxPoint x="100" y="810" as="sourcePoint" />
            <mxPoint x="590" y="720" as="targetPoint" />
            <Array as="points">
              <mxPoint x="100" y="938" />
            </Array>
          </mxGeometry>
        </mxCell>
        <mxCell id="YMVjEpkjYxwiIr-BXK2i-114" value="Monitor Kubernetes Cluster" style="text;html=1;strokeColor=none;fillColor=none;align=center;verticalAlign=middle;whiteSpace=wrap;rounded=0;" parent="1" vertex="1">
          <mxGeometry x="150" y="905" width="160" height="30" as="geometry" />
        </mxCell>
        <mxCell id="YMVjEpkjYxwiIr-BXK2i-116" value="Push" style="text;html=1;strokeColor=none;fillColor=none;align=center;verticalAlign=middle;whiteSpace=wrap;rounded=0;" parent="1" vertex="1">
          <mxGeometry x="280" y="447" width="60" height="30" as="geometry" />
        </mxCell>
      </root>
    </mxGraphModel>
  </diagram>
</mxfile>
